# 3ds Max Wavefront OBJ Exporter v0.97b - (c)2007 guruware
# 创建的文件:18.02.2017 10:56:01

mtllib televisionmachine.mtl

#
# object zztv
#

v  -239.0042 51.0414 105.2911
v  -239.0042 110.2225 105.2911
v  -239.0042 110.2225 110.9689
v  -239.0042 51.0414 110.9689
v  -310.9664 49.5831 103.4605
v  -310.9664 110.2225 103.4605
v  -382.9286 51.0414 105.2911
v  -382.9287 110.2225 105.2911
v  -378.0806 105.3744 109.6683
v  -243.8522 105.3744 109.6683
v  -241.5095 107.7171 110.9689
v  -380.4233 107.7171 110.9689
v  -378.0806 55.8894 109.6683
v  -380.4233 53.5467 110.9689
v  -241.5095 53.5467 110.9689
v  -243.8522 55.8894 109.6683
v  -382.9286 51.0414 110.9689
v  -382.9287 110.2225 110.9689
v  -314.6140 52.6114 112.2333
v  -314.6140 52.6114 110.9689
v  -315.5493 51.7665 110.9689
v  -315.5493 51.7665 112.2333
v  -313.7610 51.7665 110.9689
v  -313.7610 51.7665 112.2333
v  -314.6140 50.9216 110.9689
v  -314.6140 50.9216 112.2333
v  -317.7419 52.5058 112.2333
v  -317.7419 52.5058 110.9689
v  -318.5603 51.7665 110.9689
v  -318.5603 51.7665 112.2333
v  -316.9955 51.7665 110.9689
v  -316.9955 51.7665 112.2333
v  -317.7419 51.0273 110.9689
v  -317.7419 51.0273 112.2333
v  -320.7074 52.2946 112.2333
v  -320.7074 52.2946 110.9689
v  -321.2921 51.7665 110.9689
v  -321.2921 51.7665 112.2333
v  -320.1743 51.7665 110.9689
v  -320.1743 51.7665 112.2333
v  -320.7074 51.2385 110.9689
v  -320.7074 51.2385 112.2333
v  -309.7896 51.7665 112.2333
v  -310.9589 50.7104 112.2333
v  -310.9589 50.7104 110.9689
v  -309.7896 51.7665 110.9689
v  -312.0250 51.7665 112.2333
v  -312.0250 51.7665 110.9689
v  -310.9589 52.8226 112.2333
v  -310.9589 52.8226 110.9689
v  -306.4026 51.7665 112.2333
v  -307.3380 50.9216 112.2333
v  -307.3380 50.9216 110.9689
v  -306.4026 51.7665 110.9689
v  -308.1909 51.7665 112.2333
v  -308.1909 51.7665 110.9689
v  -307.3380 52.6114 112.2333
v  -307.3380 52.6114 110.9689
v  -303.3917 51.7665 112.2333
v  -304.2102 51.0273 112.2333
v  -304.2102 51.0273 110.9689
v  -303.3917 51.7665 110.9689
v  -304.9565 51.7665 112.2333
v  -304.9565 51.7665 110.9689
v  -304.2102 52.5058 112.2333
v  -304.2102 52.5058 110.9689
v  -300.6599 51.7665 112.2333
v  -301.2446 51.2385 112.2333
v  -301.2446 51.2385 110.9689
v  -300.6599 51.7665 110.9689
v  -301.7776 51.7665 112.2333
v  -301.7776 51.7665 110.9689
v  -301.2446 52.2946 112.2333
v  -301.2446 52.2946 110.9689
v  -315.0473 49.9511 105.4122
v  -315.0473 51.0414 108.2910
v  -315.0473 50.3284 109.4356
v  -306.8855 50.0731 105.4122
v  -306.8855 51.0414 107.9690
v  -306.8855 50.1278 109.4356
v  -310.9664 49.5831 110.9689
v  -350.2000 46.4646 93.6590
v  -271.7177 46.4646 93.6590
v  -271.7177 46.4646 117.8535
v  -350.2000 46.4646 117.8535
v  -271.7177 48.4762 117.8535
v  -350.2000 48.4762 117.8535
v  -271.7177 48.4762 93.6590
v  -271.7177 49.0193 105.6582
v  -350.2000 48.4762 93.6590
v  -306.8855 49.0082 105.4122
v  -315.0473 49.0082 105.4122
v  -315.0473 48.8511 109.4356
v  -306.8855 48.8511 109.4356
v  -350.2000 49.0193 105.6582
v  -306.8855 49.0193 105.6582
v  -315.0473 49.0193 105.6582
# 97 vertices

vn 1.0000 0.0000 -0.0000
vn 0.0254 -0.0000 -0.9997
vn 0.0000 -0.0000 -1.0000
vn -0.0000 -0.0000 -1.0000
vn 0.0254 0.0000 -0.9997
vn -0.0254 -0.0000 -0.9997
vn 0.0000 -0.4854 0.8743
vn -0.0000 0.4854 0.8743
vn 0.4854 0.0000 0.8743
vn 0.0000 0.0000 1.0000
vn -0.4854 0.0000 0.8743
vn -1.0000 -0.0000 -0.0000
vn -0.6703 0.7421 0.0000
vn 0.7037 0.7105 0.0000
vn 0.7037 -0.7104 -0.0000
vn 0.7037 -0.7105 -0.0000
vn -0.6703 -0.7421 -0.0000
vn 0.7037 0.7104 0.0000
vn -0.6703 0.7421 -0.0000
vn 0.7037 0.7105 -0.0000
vn 0.6703 -0.7421 -0.0000
vn -0.7037 -0.7104 -0.0000
vn -0.7037 0.7105 0.0000
vn 0.6703 0.7421 0.0000
vn -0.7037 0.7104 0.0000
vn -0.7037 0.7105 -0.0000
vn 0.6703 0.7421 -0.0000
vn -0.0191 -0.9998 -0.0001
vn -0.0203 -0.9998 -0.0000
vn 0.0119 -0.9785 0.2060
vn 0.0054 -0.9704 0.2414
vn -0.0034 -0.9963 -0.0863
vn -0.0197 -0.8970 -0.4415
vn 0.0143 -0.9650 0.2620
vn 0.0191 -0.9998 0.0000
vn -0.0043 -0.9941 -0.1084
vn -0.0141 -0.9094 -0.4157
vn 0.0203 -0.9998 -0.0000
vn -0.0198 -0.9261 -0.3768
vn 0.0000 -1.0000 -0.0000
vn -0.0000 0.0000 -1.0000
vn 0.0000 0.0000 -1.0000
vn 0.0000 1.0000 -0.0000
vn -1.0000 0.0000 -0.0000
vn -0.0000 1.0000 -0.0004
vn 0.0000 1.0000 -0.0004
vn -0.0000 0.9990 0.0445
vn 0.0000 0.9990 0.0445
vn -0.0000 0.9990 -0.0452
vn 0.0000 0.9990 -0.0452
# 50 vertex normals

vt 1.0000 0.0000 0.0000
vt 1.0000 1.0000 0.0000
vt 0.0000 1.0000 0.0000
vt 0.0000 0.0000 0.0000
vt 1.0000 0.5000 0.0000
vt 0.0000 0.5000 0.0000
vt 0.0290 0.0000 0.0000
vt 0.0290 1.0000 0.0000
vt 1.0000 0.9663 0.0000
vt 0.0000 0.9663 0.0000
vt 0.9135 1.0000 0.0000
vt 0.0865 0.0000 0.0000
vt 1.0000 1.0000 1.0000
vt 0.2201 0.5284 0.0000
vt 0.5284 0.5284 0.0000
vt 0.7300 0.5284 0.0000
vt 0.1979 0.4716 0.0000
vt 0.4716 0.4716 0.0000
vt 0.7300 0.4716 0.0000
vt 1.0053 0.3525 0.0000
vt 0.5000 1.0000 0.0000
vt -0.0053 0.6475 0.0000
vt 1.0000 0.3603 0.0000
vt 0.0000 0.3755 0.0000
vt 0.0000 0.2428 0.0000
vt 1.0000 0.2428 0.0000
vt 1.0000 0.3824 0.0000
vt 0.0000 0.4074 0.0000
vt 0.0000 0.2232 0.0000
vt 1.0000 0.2232 0.0000
vt 0.3920 1.0000 0.0000
vt 0.6080 0.0000 0.0000
vt -0.0000 1.0000 0.0000
vt 0.5401 0.5701 0.0000
vt 0.4165 0.5743 0.0000
vt 0.2930 0.5701 0.0000
vt 0.2436 0.5488 0.0000
vt 0.2189 0.5263 0.0000
vt 0.4165 0.5547 0.0000
vt 0.4165 0.5663 0.0000
vt 0.5895 0.5488 0.0000
vt 0.6637 0.4999 0.0000
vt 0.5862 1.0180 0.0000
vt -12.6754 1.0000 0.0000
vt -13.2617 1.0180 0.0000
vt -12.6754 0.0000 0.0000
vt -13.2617 -0.0180 0.0000
vt 0.5862 -0.0180 0.0000
vt 0.2436 0.4514 0.0000
vt 0.2930 0.4300 0.0000
vt 0.4165 0.4258 0.0000
vt 0.5401 0.4300 0.0000
vt 0.5895 0.4514 0.0000
vt 0.4165 0.4455 0.0000
vt 0.4165 0.4339 0.0000
vt 0.6142 0.4739 0.0000
vt 0.4165 0.4671 0.0000
vt 0.4165 0.4567 0.0000
vt 0.2189 0.4739 0.0000
vt 0.4165 0.5330 0.0000
vt 0.4165 0.5434 0.0000
vt 0.6142 0.5263 0.0000
vt 0.4165 0.5076 0.0000
vt 0.4165 0.5201 0.0000
vt 0.1694 0.4999 0.0000
vt 0.4165 0.4915 0.0000
vt 0.4165 0.4800 0.0000
vt 0.0052 0.6512 0.0000
vt 0.9948 0.3488 0.0000
vt 0.5519 0.5000 0.0000
vt 0.5519 0.3451 0.0000
vt 0.4479 0.3451 0.0000
vt 0.4479 0.5000 0.0000
vt 0.5519 0.5103 0.0000
vt 0.4479 0.5103 0.0000
vt 0.0000 0.3824 0.0000
vt 0.9388 0.2442 0.0000
vt 0.3645 0.4963 0.0000
vt 1.0000 0.3755 0.0000
vt 0.0000 0.3603 0.0000
vt 0.0612 0.2442 0.0000
vt 0.7155 0.4963 0.0000
vt 1.0000 0.4074 0.0000
# 83 texture coords

g zztv
usemtl Material__1565
s 2
f 1/1/1 2/2/1 3/3/1 4/4/1 
s 64
f 1/1/2 5/5/3 6/6/4 2/7/5 
f 6/6/4 5/5/3 7/2/6 8/8/6 
s off
f 9/9/7 10/1/7 11/1/7 12/2/7 
f 13/10/8 14/3/8 15/4/8 16/4/8 
f 9/11/9 12/2/9 14/3/9 13/3/9 
s 16
f 9/2/10 13/3/10 16/4/10 10/1/10 
s off
f 10/1/11 16/12/11 15/4/11 11/1/11 
s 4
f 7/4/12 17/1/12 18/2/12 8/3/12 
usemtl Material__1566
s 1
f 19/13/13 20/13/13 21/13/13 22/13/13 
s 4
f 23/13/14 20/13/14 19/13/14 24/13/14 
s 1
f 25/13/15 23/13/15 24/13/15 26/13/16 
s 2
f 26/13/10 24/13/10 19/13/10 22/13/10 
s 4
f 22/13/17 21/13/17 25/13/17 26/13/17 
s 1
f 27/13/13 28/13/13 29/13/13 30/13/13 
s 4
f 31/13/18 28/13/18 27/13/18 32/13/18 
s 1
f 33/13/15 31/13/15 32/13/15 34/13/15 
s 2
f 34/13/10 32/13/10 27/13/10 30/13/10 
s 4
f 30/13/17 29/13/17 33/13/17 34/13/17 
s 1
f 35/13/19 36/13/19 37/13/19 38/13/19 
s 4
f 39/13/20 36/13/20 35/13/20 40/13/20 
s 1
f 41/13/15 39/13/15 40/13/15 42/13/15 
s 2
f 42/13/10 40/13/10 35/13/10 38/13/10 
s 4
f 38/13/17 37/13/17 41/13/17 42/13/17 
f 43/13/21 44/13/21 45/13/21 46/13/21 
s 1
f 45/13/22 44/13/22 47/13/22 48/13/22 
s 2
f 48/13/23 47/13/23 49/13/23 50/13/23 
s 1
f 49/13/24 43/13/24 46/13/24 50/13/24 
s 8
f 49/13/10 47/13/10 44/13/10 43/13/10 
s 4
f 51/13/21 52/13/21 53/13/21 54/13/21 
s 1
f 53/13/22 52/13/22 55/13/22 56/13/22 
s 2
f 56/13/25 55/13/25 57/13/25 58/13/25 
s 1
f 57/13/24 51/13/24 54/13/24 58/13/24 
s 8
f 57/13/10 55/13/10 52/13/10 51/13/10 
s 4
f 59/13/21 60/13/21 61/13/21 62/13/21 
s 1
f 61/13/22 60/13/22 63/13/22 64/13/22 
s 2
f 64/13/25 63/13/25 65/13/25 66/13/25 
s 1
f 65/13/24 59/13/24 62/13/24 66/13/24 
s 8
f 65/13/10 63/13/10 60/13/10 59/13/10 
s 4
f 67/13/21 68/13/21 69/13/21 70/13/21 
s 1
f 68/13/22 71/13/22 72/13/22 69/13/22 
s 2
f 72/13/26 71/13/26 73/13/26 74/13/26 
s 1
f 74/13/27 73/13/27 67/13/27 70/13/27 
s 8
f 73/13/10 71/13/10 68/13/10 67/13/10 
usemtl Material__1565
f 17/2/28 7/3/29 5/6/30 75/14/31 
f 17/2/28 75/14/31 76/15/32 77/16/33 
f 78/17/34 75/14/31 5/6/30 1/4/35 
f 79/18/36 78/17/34 1/4/35 80/19/37 
f 1/4/35 4/1/38 81/5/39 80/19/37 
f 77/16/33 80/19/37 81/5/39 17/2/28 
s 2
f 82/2/40 83/3/40 84/4/40 85/1/40 
s 8
f 85/4/10 84/1/10 86/2/10 87/3/10 
s 16
f 83/20/1 88/2/1 89/21/1 86/22/1 
f 83/20/1 86/22/1 84/4/1 
s 32
f 83/4/3 82/1/3 90/2/3 88/3/3 
s 1
f 75/23/41 78/24/41 91/25/41 92/26/42 
usemtl Material__1566
f 80/27/10 77/28/10 93/29/10 94/30/10 
usemtl Material__1565
s 32
f 6/5/43 8/2/43 18/31/43 2/32/43 
f 2/32/43 18/31/43 3/4/43 
s off
f 14/33/10 41/34/10 37/35/10 36/36/10 
f 28/37/10 20/38/10 14/33/10 36/36/10 
f 29/39/10 28/37/10 36/36/10 39/40/10 
f 29/39/10 39/40/10 41/34/10 33/41/10 
f 33/41/10 41/34/10 14/33/10 45/42/10 
f 81/5/10 15/4/10 45/42/10 14/33/10 
f 17/43/10 81/5/10 14/33/10 12/44/10 
f 18/45/10 17/43/10 12/44/10 11/46/10 
f 3/47/10 18/45/10 11/46/10 4/48/10 
f 4/48/10 11/46/10 15/4/10 81/5/10 
f 15/4/10 66/49/10 74/50/10 70/51/10 
f 15/4/10 70/51/10 69/52/10 61/53/10 
f 74/50/10 66/49/10 62/54/10 72/55/10 
f 69/52/10 72/55/10 62/54/10 61/53/10 
f 45/42/10 15/4/10 61/53/10 53/56/10 
f 54/57/10 53/56/10 61/53/10 64/58/10 
f 54/57/10 64/58/10 66/49/10 58/59/10 
f 21/60/10 20/38/10 28/37/10 31/61/10 
f 21/60/10 31/61/10 33/41/10 25/62/10 
f 25/62/10 33/41/10 45/42/10 48/63/10 
f 23/64/10 25/62/10 48/63/10 20/38/10 
f 20/38/10 48/63/10 50/65/10 14/33/10 
f 15/4/10 14/33/10 50/65/10 66/49/10 
f 58/59/10 66/49/10 50/65/10 46/66/10 
f 46/66/10 45/42/10 53/56/10 56/67/10 
f 58/59/10 46/66/10 56/67/10 
s 64
f 95/21/44 90/68/44 82/4/44 87/2/44 
f 87/2/44 82/4/44 85/69/44 
s 4
f 89/5/45 96/70/46 94/71/47 86/1/47 
f 86/1/47 94/71/47 93/72/48 87/4/48 
f 95/6/46 87/4/48 93/72/48 97/73/46 
f 91/74/49 96/70/46 89/5/45 88/2/49 
f 92/75/50 91/74/49 88/2/49 90/3/50 
f 92/75/50 90/3/50 95/6/46 97/73/46 
s 2
f 80/76/1 94/29/1 96/77/1 79/78/1 
f 78/79/1 79/78/1 96/77/1 91/26/1 
f 75/80/44 92/25/44 97/81/44 76/82/44 
f 77/83/44 76/82/44 97/81/44 93/30/44 
# 93 polygons - 4 triangles

